<?xml version="1.0" encoding="UTF-8"?> <svg xmlns="http://www.w3.org/2000/svg" width="122" height="49" viewBox="0 0 122 49" fill="none"><g clip-path="url(#clip0_55_43)"><path d="M11.9375 10.0698L8.75273 31.0038H2.10815L5.29292 10.0698H11.9375Z" fill="black"></path><path d="M26.2523 22.9665L22.5124 27.3591L22.4062 27.05L20.1859 20.4099H20.1828L19.4664 18.2648L18.6013 20.3308L14.1451 31.0032H8.77197L15.7872 14.1946L16.6905 12.0328C16.8423 11.8201 17.0067 11.6247 17.1843 11.4492C17.8393 10.7971 18.6557 10.4095 19.5402 10.4095C20.5597 10.4095 21.486 10.9207 22.1799 11.7616C22.4474 12.0873 22.6831 12.4616 22.8706 12.8737C22.8737 12.8771 22.8737 12.8844 22.8768 12.8877L23.2513 14.0065V14.0098L25.7684 21.5253L26.2523 22.9665Z" fill="black"></path><path d="M42.7133 31.1029L37.7952 31.1475L37.437 25.3995L37.1176 20.2451L36.9851 18.1245L35.8331 19.8608L28.7697 30.492L28.7372 30.389C28.0659 31.1162 27.2014 31.5556 26.2588 31.5556C25.0905 31.5556 24.0454 30.8829 23.3353 29.8193L23.2903 29.6923L26.7563 24.4761L28.2634 22.208L34.6398 12.6092L34.9655 12.1186C35.4043 11.5217 35.94 11.051 36.5238 10.7393C37.3308 10.3032 38.2309 10.1762 39.0922 10.4475C39.9086 10.7014 40.5699 11.2744 41.0287 12.0395C41.3094 12.5095 41.5125 13.0519 41.6257 13.6356C41.6257 13.6389 41.6257 13.6422 41.6288 13.6455L41.7194 15.1212L42.3551 25.3509L42.7133 31.1029Z" fill="black"></path><path d="M49.4252 31.0409L42.7131 31.1028L42.355 25.3514L48.3601 25.2963L49.4252 31.0409Z" fill="black"></path><g filter="url(#filter0_d_55_43)"><path d="M38.2755 9.34197C38.5143 5.67593 37.4192 4.20752 36.8297 3.62388C33.895 0.718303 26.2747 2.69989 18.2324 9.64642C19.1838 8.92385 20.5971 7.95333 22.4254 7.05992C24.712 5.94316 32.0079 2.37949 36.0896 5.8009C36.7422 6.34732 37.6711 7.37301 38.2755 9.34197Z" fill="black"></path></g><g filter="url(#filter1_d_55_43)"><path d="M7.92941 32.1094C8.44885 33.0134 9.03142 33.51 9.52648 33.8012C14.5752 36.7706 24.3696 26.5395 25.5878 25.2446C26.4761 24.3 28.4476 22.1091 30.3034 18.8126C32.2812 15.2988 34.2508 11.7996 32.9456 9.132C32.6631 8.555 31.7474 7.03474 28.7695 6.33876C31.4767 6.16327 34.5371 6.48301 36.0298 8.56298C39.3745 13.2255 33.1338 24.3519 26.7305 30.6935C21.5436 35.8306 11.9787 42.0579 7.60437 38.564C5.92604 37.2232 5.36347 34.7325 5.29346 32.1892L7.92941 32.1094Z" fill="black"></path></g><line y1="-0.25" x2="6.54404" y2="-0.25" transform="matrix(-1 -0.000595193 0.000526286 -1 11.9031 10.1028)" stroke="black" stroke-width="0.5"></line><line y1="-0.25" x2="21.1573" y2="-0.25" transform="matrix(-0.151399 0.988473 -0.985327 -0.170677 5.33521 10.0948)" stroke="black" stroke-width="0.5"></line><line y1="-0.25" x2="5.75347" y2="-0.25" transform="matrix(0.0648432 0.997895 -0.997311 0.0732902 44.2478 25.3289)" stroke="black" stroke-width="0.5"></line><line y1="-0.25" x2="5.75347" y2="-0.25" transform="matrix(0.0648432 0.997895 -0.997311 0.0732902 43.1577 25.3615)" stroke="black" stroke-width="0.5"></line></g><path d="M54.3526 18.5768H52.8286V9.75682H54.3526V18.5768ZM55.77 9.75682H57.426L61.506 16.1648H61.542V9.75682H63.006V18.5768H61.398L57.27 12.1088H57.234V18.5768H55.77V9.75682ZM68.3784 18.7448C67.5624 18.7448 66.8304 18.5528 66.1824 18.1688C65.5344 17.7768 65.0264 17.2368 64.6584 16.5488C64.2984 15.8528 64.1184 15.0608 64.1184 14.1728C64.1184 13.2608 64.3064 12.4608 64.6824 11.7728C65.0584 11.0768 65.5744 10.5408 66.2304 10.1648C66.8944 9.78082 67.6344 9.58882 68.4504 9.58882C69.0824 9.58882 69.6704 9.70882 70.2144 9.94883C70.7664 10.1808 71.2144 10.4968 71.5584 10.8968L70.5744 11.8808C70.3024 11.5848 69.9984 11.3608 69.6624 11.2088C69.3264 11.0488 68.9304 10.9688 68.4744 10.9688C67.9704 10.9688 67.5064 11.1008 67.0824 11.3648C66.6584 11.6208 66.3184 11.9928 66.0624 12.4808C65.8144 12.9688 65.6904 13.5328 65.6904 14.1728C65.6904 14.8048 65.8064 15.3648 66.0384 15.8528C66.2784 16.3328 66.6024 16.7088 67.0104 16.9808C67.4264 17.2448 67.8944 17.3768 68.4144 17.3768C68.8784 17.3768 69.2984 17.3088 69.6744 17.1728C70.0504 17.0288 70.3104 16.8488 70.4544 16.6328V15.1928H68.3424V13.8848H71.9304V17.2208C71.5864 17.6928 71.1064 18.0648 70.4904 18.3368C69.8744 18.6088 69.1704 18.7448 68.3784 18.7448ZM73.2586 9.75682H79.2106V11.0648H74.7706V13.4048H78.8866V14.7008H74.7706V17.2688H79.4146V18.5768H73.2586V9.75682ZM80.5083 9.75682H82.1643L86.2443 16.1648H86.2803V9.75682H87.7443V18.5768H86.1363L82.0083 12.1088H81.9723V18.5768H80.5083V9.75682ZM90.6807 18.5768H89.1567V9.75682H90.6807V18.5768ZM96.1541 18.7448C95.3221 18.7448 94.5741 18.5488 93.9101 18.1568C93.2541 17.7568 92.7381 17.2128 92.3621 16.5248C91.9861 15.8288 91.7981 15.0448 91.7981 14.1728C91.7981 13.3088 91.9861 12.5288 92.3621 11.8328C92.7381 11.1288 93.2581 10.5808 93.9221 10.1888C94.5861 9.78882 95.3301 9.58882 96.1541 9.58882C96.9861 9.58882 97.7301 9.78882 98.3861 10.1888C99.0501 10.5808 99.5701 11.1248 99.9461 11.8208C100.322 12.5168 100.51 13.3008 100.51 14.1728C100.51 15.0448 100.322 15.8288 99.9461 16.5248C99.5701 17.2128 99.0501 17.7568 98.3861 18.1568C97.7301 18.5488 96.9861 18.7448 96.1541 18.7448ZM93.3821 14.1728C93.3821 14.7968 93.4981 15.3488 93.7301 15.8288C93.9621 16.3088 94.2861 16.6848 94.7021 16.9568C95.1261 17.2208 95.6101 17.3528 96.1541 17.3528C96.7061 17.3528 97.1901 17.2168 97.6061 16.9448C98.0301 16.6728 98.3541 16.2928 98.5781 15.8048C98.8101 15.3088 98.9261 14.7448 98.9261 14.1128C98.9261 13.5048 98.8101 12.9648 98.5781 12.4928C98.3461 12.0128 98.0181 11.6408 97.5941 11.3768C97.1781 11.1128 96.6981 10.9808 96.1541 10.9808C95.6101 10.9808 95.1261 11.1168 94.7021 11.3888C94.2861 11.6528 93.9621 12.0288 93.7301 12.5168C93.4981 12.9968 93.3821 13.5488 93.3821 14.1728ZM103.221 9.75682V15.1688C103.221 15.8808 103.389 16.4248 103.725 16.8008C104.069 17.1768 104.585 17.3648 105.273 17.3648C105.961 17.3648 106.473 17.1768 106.809 16.8008C107.145 16.4248 107.313 15.8808 107.313 15.1688V9.75682H108.825V15.3128C108.825 16.4088 108.513 17.2568 107.889 17.8568C107.265 18.4488 106.393 18.7448 105.273 18.7448C104.145 18.7448 103.265 18.4488 102.633 17.8568C102.009 17.2568 101.697 16.4088 101.697 15.3128V9.75682H103.221ZM114.989 11.7848C114.509 11.2088 113.873 10.9208 113.081 10.9208C112.681 10.9208 112.341 11.0168 112.061 11.2088C111.789 11.4008 111.653 11.6728 111.653 12.0248C111.653 12.3688 111.781 12.6328 112.037 12.8168C112.293 13.0008 112.729 13.1808 113.345 13.3568C114.273 13.6128 114.981 13.9568 115.469 14.3888C115.965 14.8208 116.213 15.4168 116.213 16.1768C116.213 16.7368 116.073 17.2088 115.793 17.5928C115.513 17.9768 115.129 18.2648 114.641 18.4568C114.161 18.6488 113.625 18.7448 113.033 18.7448C112.433 18.7448 111.833 18.6208 111.233 18.3728C110.633 18.1248 110.169 17.7928 109.841 17.3768L110.765 16.4168C111.069 16.7448 111.421 16.9928 111.821 17.1608C112.229 17.3288 112.653 17.4128 113.093 17.4128C113.557 17.4128 113.937 17.3128 114.233 17.1128C114.529 16.9128 114.677 16.6248 114.677 16.2488C114.677 15.9368 114.601 15.6848 114.449 15.4928C114.297 15.3008 114.089 15.1488 113.825 15.0368C113.561 14.9168 113.185 14.7888 112.697 14.6528C111.841 14.4128 111.193 14.0928 110.753 13.6928C110.321 13.2928 110.105 12.7648 110.105 12.1088C110.105 11.5808 110.241 11.1288 110.513 10.7528C110.785 10.3688 111.149 10.0808 111.605 9.88882C112.061 9.68882 112.569 9.58882 113.129 9.58882C113.681 9.58882 114.209 9.70082 114.713 9.92482C115.217 10.1408 115.633 10.4408 115.961 10.8248L114.989 11.7848Z" fill="black"></path><path d="M57.3886 27.8357H57.4246L60.4486 22.3157H61.9606V31.1357H60.4966V24.9557H60.4606L57.8206 29.9357H56.9686L54.3286 24.9557H54.2926V31.1357H52.8286V22.3157H54.3886L57.3886 27.8357ZM65.0195 31.1357H63.4955V22.3157H65.0195V31.1357ZM66.5569 22.3157H68.2129L72.2929 28.7237H72.3289V22.3157H73.7929V31.1357H72.1849L68.0569 24.6677H68.0209V31.1357H66.5569V22.3157ZM75.5053 22.3157H78.8053C79.6613 22.3157 80.4133 22.4997 81.0613 22.8677C81.7093 23.2277 82.2093 23.7437 82.5613 24.4157C82.9213 25.0797 83.1013 25.8477 83.1013 26.7197C83.1013 27.5997 82.9173 28.3757 82.5493 29.0477C82.1893 29.7117 81.6853 30.2277 81.0373 30.5957C80.3893 30.9557 79.6453 31.1357 78.8053 31.1357H75.5053V22.3157ZM78.7453 29.8397C79.5853 29.8397 80.2573 29.5677 80.7613 29.0237C81.2653 28.4717 81.5173 27.7037 81.5173 26.7197C81.5173 25.7277 81.2653 24.9637 80.7613 24.4277C80.2653 23.8837 79.5933 23.6117 78.7453 23.6117H77.0173V29.8397H78.7453ZM89.0199 24.3437C88.5399 23.7677 87.9039 23.4797 87.1119 23.4797C86.7119 23.4797 86.3719 23.5757 86.0919 23.7677C85.8199 23.9597 85.6839 24.2317 85.6839 24.5837C85.6839 24.9277 85.8119 25.1917 86.0679 25.3757C86.3239 25.5597 86.7599 25.7397 87.3759 25.9157C88.3039 26.1717 89.0119 26.5157 89.4999 26.9477C89.9959 27.3797 90.2439 27.9757 90.2439 28.7357C90.2439 29.2957 90.1039 29.7677 89.8239 30.1517C89.5439 30.5357 89.1599 30.8237 88.6719 31.0157C88.1919 31.2077 87.6559 31.3037 87.0639 31.3037C86.4639 31.3037 85.8639 31.1797 85.2639 30.9317C84.6639 30.6837 84.1999 30.3517 83.8719 29.9357L84.7959 28.9757C85.0999 29.3037 85.4519 29.5517 85.8519 29.7197C86.2599 29.8877 86.6839 29.9717 87.1239 29.9717C87.5879 29.9717 87.9679 29.8717 88.2639 29.6717C88.5599 29.4717 88.7079 29.1837 88.7079 28.8077C88.7079 28.4957 88.6319 28.2437 88.4799 28.0517C88.3279 27.8597 88.1199 27.7077 87.8559 27.5957C87.5919 27.4757 87.2159 27.3477 86.7279 27.2117C85.8719 26.9717 85.2239 26.6517 84.7839 26.2517C84.3519 25.8517 84.1359 25.3237 84.1359 24.6677C84.1359 24.1397 84.2719 23.6877 84.5439 23.3117C84.8159 22.9277 85.1799 22.6397 85.6359 22.4477C86.0919 22.2477 86.5999 22.1477 87.1599 22.1477C87.7119 22.1477 88.2399 22.2597 88.7439 22.4837C89.2479 22.6997 89.6639 22.9997 89.9919 23.3837L89.0199 24.3437ZM94.4236 22.3157H95.9476V29.8037H100.376V31.1357H94.4236V22.3157ZM103.983 22.3157H105.567L109.023 31.1357H107.463L106.623 28.8677H102.879L102.039 31.1357H100.527L103.983 22.3157ZM106.131 27.5477L104.751 23.8517H104.727L103.359 27.5477H106.131ZM110.043 22.3157H113.127C114.079 22.3157 114.835 22.4997 115.395 22.8677C115.955 23.2277 116.235 23.7797 116.235 24.5237C116.235 25.0197 116.103 25.4317 115.839 25.7597C115.575 26.0877 115.219 26.3157 114.771 26.4437V26.4797C115.331 26.5437 115.791 26.7797 116.151 27.1877C116.511 27.5957 116.691 28.0917 116.691 28.6757C116.691 29.4917 116.395 30.1077 115.803 30.5237C115.211 30.9317 114.423 31.1357 113.439 31.1357H110.043V22.3157ZM113.463 29.8277C114.023 29.8277 114.439 29.7197 114.711 29.5037C114.991 29.2877 115.131 28.9557 115.131 28.5077C115.131 28.0677 114.979 27.7357 114.675 27.5117C114.379 27.2877 113.983 27.1757 113.487 27.1757H111.531V29.8277H113.463ZM113.151 25.8917C113.631 25.8917 114.003 25.8077 114.267 25.6397C114.539 25.4637 114.675 25.1637 114.675 24.7397C114.675 23.9957 114.147 23.6237 113.091 23.6237H111.531V25.8917H113.151Z" fill="black"></path><defs><filter id="filter0_d_55_43" x="8.23242" y="-3.66968" width="40.0767" height="27.3162" filterUnits="userSpaceOnUse" color-interpolation-filters="sRGB"><feFlood flood-opacity="0" result="BackgroundImageFix"></feFlood><feColorMatrix in="SourceAlpha" type="matrix" values="0 0 0 0 0 0 0 0 0 0 0 0 0 0 0 0 0 0 127 0" result="hardAlpha"></feColorMatrix><feOffset dy="4"></feOffset><feGaussianBlur stdDeviation="5"></feGaussianBlur><feComposite in2="hardAlpha" operator="out"></feComposite><feColorMatrix type="matrix" values="0 0 0 0 0 0 0 0 0 0 0 0 0 0 0 0 0 0 0.15 0"></feColorMatrix><feBlend mode="normal" in2="BackgroundImageFix" result="effect1_dropShadow_55_43"></feBlend><feBlend mode="normal" in="SourceGraphic" in2="effect1_dropShadow_55_43" result="shape"></feBlend></filter><filter id="filter1_d_55_43" x="-4.70654" y="0.297485" width="51.6694" height="53.283" filterUnits="userSpaceOnUse" color-interpolation-filters="sRGB"><feFlood flood-opacity="0" result="BackgroundImageFix"></feFlood><feColorMatrix in="SourceAlpha" type="matrix" values="0 0 0 0 0 0 0 0 0 0 0 0 0 0 0 0 0 0 127 0" result="hardAlpha"></feColorMatrix><feOffset dy="4"></feOffset><feGaussianBlur stdDeviation="5"></feGaussianBlur><feComposite in2="hardAlpha" operator="out"></feComposite><feColorMatrix type="matrix" values="0 0 0 0 0 0 0 0 0 0 0 0 0 0 0 0 0 0 0.15 0"></feColorMatrix><feBlend mode="normal" in2="BackgroundImageFix" result="effect1_dropShadow_55_43"></feBlend><feBlend mode="normal" in="SourceGraphic" in2="effect1_dropShadow_55_43" result="shape"></feBlend></filter><clipPath id="clip0_55_43"><rect width="50.8886" height="47.7677" fill="white" transform="translate(0.456299 0.465576)"></rect></clipPath></defs></svg> 